<svg xmlns="http://www.w3.org/2000/svg" viewBox="0 0 1200 630" role="img" aria-label="硅基文明消费股交易系统">
  <defs>
    <linearGradient id="bg" x1="0" y1="630" x2="1200" y2="0" gradientUnits="userSpaceOnUse">
      <stop offset="0" stop-color="#101114"/>
      <stop offset=".58" stop-color="#17231d"/>
      <stop offset="1" stop-color="#263c32"/>
    </linearGradient>
    <filter id="soft-glow" x="-20%" y="-30%" width="140%" height="160%">
      <feGaussianBlur stdDeviation="9" result="blur"/>
      <feMerge><feMergeNode in="blur"/><feMergeNode in="SourceGraphic"/></feMerge>
    </filter>
  </defs>
  <rect width="1200" height="630" fill="url(#bg)"/>
  <g opacity=".14" stroke="#f2f4f1" stroke-width="1">
    <path d="M0 122h1200M0 242h1200M0 362h1200M0 482h1200"/>
    <path d="M164 0v630M344 0v630M524 0v630M704 0v630M884 0v630M1064 0v630"/>
  </g>
  <rect x="74" y="70" width="1052" height="490" rx="34" fill="#181a1f" fill-opacity=".68" stroke="#f2f4f1" stroke-opacity=".14" stroke-width="2"/>
  <text x="112" y="150" fill="#f2b84b" font-family="-apple-system,BlinkMacSystemFont,'Segoe UI','PingFang SC','Microsoft YaHei',sans-serif" font-size="28" font-weight="700">DeepSeek · Tushare · A股股票池</text>
  <text x="112" y="252" fill="#f2f4f1" font-family="-apple-system,BlinkMacSystemFont,'Segoe UI','PingFang SC','Microsoft YaHei',sans-serif" font-size="84" font-weight="850">硅基文明消费股</text>
  <text x="112" y="352" fill="#f2f4f1" font-family="-apple-system,BlinkMacSystemFont,'Segoe UI','PingFang SC','Microsoft YaHei',sans-serif" font-size="84" font-weight="850">交易系统</text>
  <g font-family="-apple-system,BlinkMacSystemFont,'Segoe UI','PingFang SC','Microsoft YaHei',sans-serif">
    <g transform="translate(112 470)">
      <rect width="956" height="54" rx="14" fill="#121418" stroke="#30343b"/>
      <text x="24" y="36" fill="#63d471" font-size="28" font-weight="800">+376.9%</text>
      <text x="172" y="35" fill="#9ca39a" font-size="20">回测收益</text>
      <text x="320" y="35" fill="#f2f4f1" font-size="22" font-weight="700">年化 +677.1%</text>
      <text x="508" y="35" fill="#f2f4f1" font-size="22" font-weight="700">回撤 -21.6%</text>
      <text x="694" y="35" fill="#f2f4f1" font-size="22" font-weight="700">夏普 3.66</text>
      <text x="820" y="35" fill="#9ca39a" font-size="18">¥4,764,811</text>
    </g>
  </g>
  <polyline points="646.0,360.0 648.0,360.0 650.1,359.2 652.1,359.2 654.2,358.3 656.2,358.5 658.3,357.2 660.3,357.1 662.3,357.6 664.4,358.1 666.4,358.1 668.5,357.6 670.5,356.9 672.5,356.0 674.6,355.4 676.6,355.1 678.7,356.0 680.7,354.8 682.8,354.6 684.8,355.1 686.8,353.2 688.9,353.4 690.9,353.6 693.0,353.9 695.0,353.4 697.0,350.0 699.1,350.8 701.1,348.9 703.2,349.2 705.2,349.1 707.3,349.5 709.3,349.9 711.3,350.0 713.4,350.1 715.4,347.9 717.5,344.1 719.5,340.1 721.5,341.8 723.6,341.9 725.6,340.6 727.7,339.2 729.7,339.8 731.8,340.5 733.8,338.7 735.8,335.2 737.9,335.7 739.9,334.0 742.0,327.5 744.0,325.5 746.1,330.3 748.1,326.7 750.1,319.6 752.2,321.4 754.2,323.2 756.3,322.5 758.3,323.0 760.3,322.6 762.4,321.9 764.4,321.3 766.5,320.4 768.5,321.8 770.6,329.4 772.6,327.2 774.6,323.3 776.7,322.8 778.7,324.2 780.8,319.3 782.8,315.5 784.8,315.3 786.9,314.4 788.9,317.2 791.0,322.4 793.0,321.9 795.1,322.0 797.1,322.0 799.1,319.9 801.2,320.2 803.2,321.1 805.3,323.6 807.3,323.2 809.4,323.6 811.4,326.1 813.4,325.3 815.5,325.4 817.5,324.7 819.6,324.1 821.6,327.8 823.6,328.7 825.7,325.9 827.7,321.6 829.8,322.4 831.8,322.7 833.9,321.5 835.9,320.8 837.9,320.8 840.0,319.6 842.0,319.4 844.1,314.7 846.1,311.4 848.1,311.4 850.2,314.4 852.2,314.3 854.3,315.3 856.3,317.0 858.4,312.0 860.4,314.3 862.4,313.9 864.5,313.6 866.5,314.2 868.6,317.0 870.6,315.4 872.6,312.1 874.7,316.0 876.7,315.6 878.8,313.2 880.8,312.9 882.9,314.2 884.9,310.8 886.9,312.5 889.0,311.3 891.0,314.1 893.1,314.9 895.1,314.9 897.2,311.8 899.2,311.7 901.2,313.8 903.3,313.8 905.3,314.1 907.4,312.2 909.4,310.2 911.4,307.0 913.5,309.6 915.5,308.3 917.6,311.4 919.6,312.6 921.7,310.9 923.7,311.8 925.7,313.4 927.8,310.7 929.8,311.0 931.9,312.7 933.9,312.6 935.9,310.6 938.0,312.4 940.0,308.6 942.1,310.0 944.1,309.7 946.2,312.9 948.2,312.0 950.2,310.7 952.3,312.2 954.3,312.7 956.4,312.9 958.4,314.7 960.5,312.5 962.5,314.3 964.5,314.0 966.6,314.0 968.6,309.0 970.7,309.5 972.7,306.8 974.7,306.4 976.8,303.7 978.8,306.4 980.9,304.0 982.9,300.6 985.0,299.7 987.0,299.9 989.0,297.0 991.1,297.9 993.1,301.8 995.2,300.7 997.2,301.7 999.2,300.7 1001.3,300.4 1003.3,297.7 1005.4,297.1 1007.4,294.7 1009.5,294.2 1011.5,290.4 1013.5,293.8 1015.6,295.5 1017.6,294.6 1019.7,296.0 1021.7,295.4 1023.7,296.8 1025.8,290.2 1027.8,285.6 1029.9,282.0 1031.9,284.1 1034.0,282.8 1036.0,283.0" fill="none" stroke="#63d471" stroke-width="8" stroke-linecap="round" stroke-linejoin="round" filter="url(#soft-glow)"/>
</svg>
